<svg height="496pt" viewBox="0 0 496 496" width="496pt" xmlns="http://www.w3.org/2000/svg"><path d="m229.273438 281.832031-6-3.601562c-19.816407-11.878907-32.792969-32.726563-34.714844-55.757813l-12-144.058594c9.015625-3.445312 15.441406-12.199218 15.441406-22.414062v-48c0-4.414062-3.574219-8-8-8h-96c-4.425781 0-8 3.585938-8 8v48c0 10.214844 6.425781 18.96875 15.441406 22.425781l-12 144.054688c-1.921875 23.023437-14.898437 43.871093-34.714844 55.757812l-6 3.601563c-26.351562 15.808594-42.726562 44.71875-42.726562 75.457031v18.703125c0 .742188.105469 1.488281.304688 2.191406l32 112c.984374 3.441406 4.128906 5.808594 7.695312 5.808594h192c3.566406 0 6.710938-2.367188 7.695312-5.808594l32-112c.199219-.703125.304688-1.449218.304688-2.191406v-18.703125c0-30.738281-16.375-59.648437-42.726562-75.464844zm-133.273438-265.832031h80v40c0 4.40625-3.585938 8-8 8-2.230469 0-4.375.9375-5.886719 2.585938-1.503906 1.644531-2.265625 3.847656-2.082031 6.078124l1.945312 23.335938h-51.953124l1.945312-23.335938c.183594-2.230468-.570312-4.433593-2.082031-6.078124-1.511719-1.648438-3.65625-2.585938-5.886719-2.585938-4.414062 0-8-3.59375-8-8zm12.6875 96h54.617188l1.335937 16h-57.28125zm147.3125 262.878906-30.03125 105.121094h-179.9375l-30.03125-105.121094v-17.582031c0-25.152344 13.398438-48.808594 34.960938-61.746094l6-3.597656c24.207031-14.519531 40.070312-40 42.414062-68.152344l6.648438-79.800781h59.953124l6.648438 79.808594c2.34375 28.144531 18.199219 53.625 42.414062 68.152344l6 3.597656c21.5625 12.9375 34.960938 36.59375 34.960938 61.746094zm0 0"/><path d="m136 416c31.398438 0 56-35.144531 56-80s-24.601562-80-56-80-56 35.144531-56 80 24.601562 80 56 80zm0-144c21.679688 0 40 29.304688 40 64s-18.320312 64-40 64-40-29.304688-40-64 18.320312-64 40-64zm0 0"/><path d="m64 432h144v16h-144zm0 0"/><path d="m440 448h-32v-32.40625c49.199219-4.089844 88-45.355469 88-95.59375 0-27.664062-9.753906-54.601562-27.464844-75.847656l-14.390625-17.273438c-1.519531-1.824218-3.769531-2.878906-6.144531-2.878906h-96c-2.375 0-4.625 1.054688-6.152344 2.878906l-14.390625 17.273438c-17.703125 21.246094-27.457031 48.183594-27.457031 75.847656 0 50.238281 38.800781 91.503906 88 95.59375v32.40625h-32c-22.054688 0-40 17.945312-40 40 0 4.425781 3.574219 8 8 8h144c4.425781 0 8-3.574219 8-8 0-22.054688-17.945312-40-40-40zm-96.238281-193.609375 11.992187-14.390625h88.492188l11.992187 14.390625c15.320313 18.386719 23.761719 41.679687 23.761719 65.609375 0 5.480469-.558594 10.832031-1.617188 16h-156.765624c-1.058594-5.167969-1.617188-10.519531-1.617188-16 0-23.929688 8.441406-47.222656 23.761719-65.609375zm-17.035157 97.609375h146.546876c-12.378907 28.214844-40.546876 48-73.273438 48s-60.894531-19.785156-73.273438-48zm10.640626 128c3.304687-9.3125 12.199218-16 22.632812-16h80c10.433594 0 19.328125 6.6875 22.632812 16zm0 0"/></svg>